{"title":"Snatch 2000 DVDrip English Klam","uid":6429961,"size":1682704554,"categoryP":"video","categoryS":"movies","magnet":"?xt=urn:btih:8285da7447bc46f4f3fec0e5e7eb2637e9b5d725&amp;dn=Snatch+2000+DVDrip+English+Klam&amp;tr=udp%3A%2F%2Ftracker.openbittorrent.com%3A80&amp;tr=udp%3A%2F%2Fopen.demonii.com%3A1337&amp;tr=udp%3A%2F%2Ftracker.coppersurfer.tk%3A6969&amp;tr=udp%3A%2F%2Fexodus.desync.com%3A6969","seeders":1,"leechers":0,"uploader":"Klambake","files":-1,"time":1306612797,"description":"With: Jason Statham, Brad Pitt and Vinnie Jones\n\nTurkish en zijn partner-in-crime Tommy raken door de beruchte crimineel Brick Top betrokken bij de wereld van de illegale bokswedstrijden. Er valt grof geld te verdienen. Wanneer de door hen ingezette bokser direct in de eerste ronde knock-out geslagen wordt door de onverstaanbare Ierse zigeuner One Punch Mickey, breekt de hel los. Ondertussen wisselt ergens anders in Londen een 86-karaats diamant op onrechtmatige wijze van \\'eigenaar\\'. De daders zijn drie overgewaardeerde gangsters en een dolgedraaide hond. De twee verhalen lijken niets met elkaar te maken te hebben, maar niets is minder waar. Londen raakt in de ban van piepend speelgoed, caravans, met lood volgepompte lichamen en een diamant als stralend middelpunt...\n\nUnscrupulous boxing promoters, violent bookmakers, a Russian gangster, incompetent amateur robbers, and supposedly Jewish jewelers fight to track down a priceless stolen diamond. \n\nGeneral:\n\nComplete name                    : Snatch\\\\Snatch.avi\nFormat                           : AVI\nFormat/Info                      : Audio Video Interleave\nFile size                        : 1.57 GiB\nDuration                         : 1h 38mn\nOverall bit rate                 : 2 276 Kbps\n\nVideo:\n\nFormat                           : MPEG-4 Visual\nFormat profile                   : Simple@L3\nFormat settings, BVOP            : No\nFormat settings, QPel            : No\nFormat settings, GMC             : No warppoints\nFormat settings, Matrix          : Default (H.263)\nCodec ID                         : XVID\nCodec ID/Hint                    : XviD\nDuration                         : 1h 38mn\nBit rate                         : 1 817 Kbps\nWidth                            : 652 pixels\nHeight                           : 352 pixels\nDisplay aspect ratio             : 1.852\nFrame rate                       : 25.000 fps\nColor space                      : YUV\nChroma subsampling               : 4:2:0\nBit depth                        : 8 bits\nScan type                        : Progressive\nBits/(Pixel*Frame)               : 0.317\nStream size                      : 1.25 GiB (80%)\nWriting library                  : XviD 1.1.2 (UTC 2006-11-01)\n\nAudio:\n\nFormat                           : AC-3\nFormat/Info                      : Audio Coding 3\nMode extension                   : CM (complete main)\nCodec ID                         : 2000\nDuration                         : 1h 38mn\nBit rate mode                    : Constant\nBit rate                         : 448 Kbps\nChannel(s)                       : 6 channels\nChannel positions                : Front: L C R, Side: L R, LFE\nSampling rate                    : 48.0 KHz\nBit depth                        : 16 bits\nStream size                      : 316 MiB (20%)\nAlignment                        : Aligned on interleaves\nInterleave, duration             : 32 ms (0.80 video frame)\nInterleave, preload duration     : 160 ms","torrent":{"xt":"urn:btih:8285da7447bc46f4f3fec0e5e7eb2637e9b5d725","amp;dn":"Snatch+2000+DVDrip+English+Klam","amp;tr":["udp%3A%2F%2Ftracker.openbittorrent.com%3A80","udp%3A%2F%2Fopen.demonii.com%3A1337","udp%3A%2F%2Ftracker.coppersurfer.tk%3A6969","udp%3A%2F%2Fexodus.desync.com%3A6969"],"infoHash":"8285da7447bc46f4f3fec0e5e7eb2637e9b5d725","infoHashBuffer":{"type":"Buffer","data":[130,133,218,116,71,188,70,244,243,254,192,229,231,235,38,55,233,181,215,37]},"announce":[],"urlList":[]}}